<svg width="1440" height="522" viewBox="0 0 1440 522" fill="none" xmlns="http://www.w3.org/2000/svg">
<path fill-rule="evenodd" clip-rule="evenodd" d="M0 226.573L60 211.573C120 197.573 240 168.573 360 175.573C480 183.573 478.5 386.5 598.5 422.5C718.5 458.5 745.5 366.5 865.5 373.5C917.5 376.533 1009.27 437.044 1059 438C1202.04 440.749 1394 96 1495.5 0.5L1440 312.573V485.573H1380C1320 485.573 1200 485.573 1080 485.573C960 485.573 840 485.573 720 485.573C600 485.573 480 485.573 360 485.573C240 485.573 120 485.573 60 485.573H0V226.573Z" fill="#0099FF"/>
<path fill-rule="evenodd" clip-rule="evenodd" d="M0 208.5C124.5 208.5 226 125 346 132C466 140 478.5 422.5 598.5 458.5C718.5 494.5 745.5 402.5 865.5 409.5C917.5 412.533 1009.27 473.044 1059 474C1202.04 476.749 1367.5 168.5 1440 168.5V521.573H1380C1320 521.573 1200 521.573 1080 521.573C960 521.573 840 521.573 720 521.573C600 521.573 480 521.573 360 521.573C240 521.573 120 521.573 60 521.573H0V208.5Z" fill="#0488E0"/>
<path fill-rule="evenodd" clip-rule="evenodd" d="M-2.5 226.5C129.5 233 236.877 131.231 355 153.5C416 165 437.062 266.999 444 322.5C454 402.5 505.754 455.242 554 491.5C614.21 536.75 810 521.5 810 521.5H403H-2.5V226.5Z" fill="#006BB3"/>
</svg>
