<svg width="768" height="1024" viewBox="0 0 768 1024" fill="none" xmlns="http://www.w3.org/2000/svg">
<path fill-rule="evenodd" clip-rule="evenodd" d="M103.5 948.5C251 885.5 135.5 781.519 198.75 774.591C262 767.663 309.5 840.21 388.5 903.254C467.5 966.299 658 925.5 622 730C586 534.5 250.875 466.404 236.5 294.5C222.125 122.596 768 -2 768 -2V1024H736.375C704.75 1024 641.5 1024 578.25 1024C515 1024 451.75 1024 388.5 1024C325.25 1024 262 1024 198.75 1024C135.5 1024 72.2502 1024 40.6252 1024L10.5 1038C10.5 1038 -44 1011.5 103.5 948.5Z" fill="#0099FF"/>
<path fill-rule="evenodd" clip-rule="evenodd" d="M131.138 957.413C272.06 896.01 161.711 794.664 222.14 787.911C282.569 781.159 343.774 874.496 430.629 927.85C517.484 981.203 677.894 919.717 643.499 729.171C609.105 538.625 272.661 465.824 258.928 298.276C245.194 130.729 766 13 766 13V1031H735.786C705.571 1031 645.142 1031 584.714 1031C524.285 1031 463.856 1031 403.427 1031C342.998 1031 282.569 1031 222.14 1031C161.711 1031 101.282 1031 71.068 1031H40.8536C40.8536 1031 -9.78263 1018.82 131.138 957.413Z" fill="#0886DA"/>
<path fill-rule="evenodd" clip-rule="evenodd" d="M155.138 978.413C296.06 917.01 185.711 815.664 246.14 808.911C306.569 802.159 367.774 895.496 454.629 948.85C541.484 1002.2 698.894 923.546 664.5 733C630.106 542.454 299.734 461.047 286 293.5C272.266 125.953 773 39 773 39L759.786 1052C729.571 1052 669.142 1052 608.714 1052C548.285 1052 487.856 1052 427.427 1052C366.998 1052 306.569 1052 246.14 1052C185.711 1052 125.282 1052 95.068 1052H64.8536C64.8536 1052 14.2174 1039.82 155.138 978.413Z" fill="#0379C7"/>
<path fill-rule="evenodd" clip-rule="evenodd" d="M180.138 1006.41C321.06 945.01 210.711 843.664 271.14 836.911C331.569 830.159 392.759 947.286 479.629 976.85C566.5 1006.41 709 960 682 738.5C655 517 324.234 469.047 310.5 301.5C296.766 133.953 770 67 770 67L784.786 1080C754.571 1080 694.142 1080 633.714 1080C573.285 1080 512.856 1080 452.427 1080C391.998 1080 331.569 1080 271.14 1080C210.711 1080 150.282 1080 120.068 1080H89.8536C89.8536 1080 39.2174 1067.82 180.138 1006.41Z" fill="#0367AA"/>
</svg>
